<svg width="70" height="70" viewBox="0 0 70 70" fill="none" xmlns="http://www.w3.org/2000/svg">
<circle cx="35" cy="35" r="35" fill="#5B94FF"/>
<path d="M35 40.625C34.0314 40.625 33.0629 40.3073 32.2367 39.6635L20 30.1484V43.4375C20 44.9902 21.2592 46.25 22.8125 46.25H47.1875C48.7408 46.25 50 44.9908 50 43.4375V30.1484L37.7656 39.6699C36.9395 40.3086 35.9668 40.625 35 40.625ZM20.9545 28.5137L33.3881 38.1875C34.3367 38.9258 35.6656 38.9258 36.6143 38.1875L49.0479 28.5137C49.5957 28.0449 50 27.3242 50 26.5625C50 25.0092 48.7402 23.75 47.1875 23.75H22.8125C21.2592 23.75 20 25.0092 20 26.5625C20 27.3242 20.3521 28.0449 20.9545 28.5137Z" fill="white"/>
</svg>
