<svg width="70" height="70" viewBox="0 0 70 70" fill="none" xmlns="http://www.w3.org/2000/svg">
<circle cx="35" cy="35" r="35" fill="#5B94FF"/>
<g clip-path="url(#clip0_18_194)">
<path d="M34.1807 48.6911C31.242 45.0769 24.7061 36.3172 24.7061 31.397C24.7061 25.4273 29.5453 20.5881 35.5149 20.5881C41.4823 20.5881 46.3237 25.4273 46.3237 31.397C46.3237 36.3172 39.7371 45.0769 36.8491 48.6911C36.1567 49.5524 34.8731 49.5524 34.1807 48.6911ZM35.5149 34.9999C37.5021 34.9999 39.1178 33.3842 39.1178 31.397C39.1178 29.4097 37.5021 27.794 35.5149 27.794C33.5276 27.794 31.9119 29.4097 31.9119 31.397C31.9119 33.3842 33.5276 34.9999 35.5149 34.9999Z" fill="white"/>
</g>
<defs>
<clipPath id="clip0_18_194">
<rect width="21.6176" height="28.8235" fill="white" transform="translate(24.7061 20.5881)"/>
</clipPath>
</defs>
</svg>
