<svg width="70" height="70" viewBox="0 0 70 70" fill="none" xmlns="http://www.w3.org/2000/svg">
<circle cx="35" cy="35" r="35" fill="#5B94FF"/>
<g clip-path="url(#clip0_18_192)">
<path d="M49.9531 42.6759L48.5908 48.5821C48.3995 49.4171 47.6656 50.0013 46.8061 50.0013C32.0234 50.0001 20 37.9767 20 23.1935C20 22.3345 20.5841 21.5997 21.4191 21.4093L27.3254 20.047C28.1855 19.8476 29.0645 20.2941 29.4219 21.1087L32.1477 27.4661C32.4663 28.2149 32.2514 29.0874 31.6215 29.6019L28.4668 32.1349C30.4578 36.1907 33.7555 39.4884 37.8125 41.4806L40.3953 38.3282C40.9044 37.6966 41.7834 37.478 42.5322 37.8023L48.8896 40.5275C49.6543 40.9298 50.1523 41.8204 49.9531 42.6759Z" fill="white"/>
</g>
<defs>
<clipPath id="clip0_18_192">
<rect width="30" height="30" fill="white" transform="translate(20 20)"/>
</clipPath>
</defs>
</svg>
