<svg width="80" height="80" viewBox="0 0 80 80" fill="none" xmlns="http://www.w3.org/2000/svg">
<path d="M50.2335 59.5999L46.8668 67C46.0002 68.8666 44.7334 70.4999 43.0334 71.6333C41.3001 72.7999 39.0334 72.9 37.2334 71.7666C31.7668 68.3 19.8336 59.4 12.6003 43.9666C12.3336 43.4333 13.0668 42.9 13.5335 43.2333C15.4335 44.5666 17.4667 45.4999 19.7001 46.0333C21.0667 46.3333 22.4669 46.4666 23.8002 46.4666C30.0002 46.4666 35.6001 43.3 39.3335 40.5666C40.4335 39.7666 41.9001 39.5999 43.0334 40.2999C46.7667 42.6333 49.2669 45.4333 50.5002 48.6C52.6336 54.2 50.3002 59.3666 50.2335 59.5999Z" fill="#5B94FF"/>
<path d="M56.1667 60.1667C55.9 60.4667 55.3669 60.1334 55.5002 59.7667C56.9669 54.9 58.8668 42.0667 41.8668 33.9334C40.8334 33.4334 40.0667 32.5 39.9334 31.3667C37.8667 12.8334 53.8335 9.50002 53.8335 9.50002C55.1335 9.23336 56.5002 9.23335 57.7668 9.60002C61.3668 10.5667 65.0334 11.9 68.7334 13.7C71.9001 15.2334 73.7334 18.5667 73.2667 22.0667C72.1667 30.3334 68.5 46.2667 56.1667 60.1667Z" fill="#5B94FF"/>
<path d="M35.1998 34.0334L35.2999 34.7001C35.5332 35.9667 34.9998 37.2667 33.9331 37.9334C26.7664 42.4334 15.0331 45.8334 7.8664 26.1334C7.19974 24.3334 6.79978 23 6.66645 21.0667C6.49978 18.5334 7.93311 15.6334 10.1998 14.5667C16.0664 11.8334 28.4666 7.06671 43.4332 7.50004C44.0999 7.53338 44.3332 8.40003 43.7998 8.7667C38.0332 13.1667 33.0664 21.1 35.1998 34.0334Z" fill="#5B94FF"/>
</svg>
