<svg width="80" height="80" viewBox="0 0 80 80" fill="none" xmlns="http://www.w3.org/2000/svg">
<path d="M72.5333 53.0667L51.1999 14.6667C48.3333 9.50008 44.3666 6.66675 39.9999 6.66675C35.6333 6.66675 31.6666 9.50008 28.7999 14.6667L7.46659 53.0667C4.76659 57.9668 4.46659 62.6668 6.63326 66.3667C8.79993 70.0667 13.0666 72.1001 18.6666 72.1001H61.3333C66.9333 72.1001 71.1999 70.0667 73.3666 66.3667C75.5333 62.6668 75.2333 57.9334 72.5333 53.0667ZM37.4999 30.0001C37.4999 28.6334 38.6333 27.5001 39.9999 27.5001C41.3666 27.5001 42.4999 28.6334 42.4999 30.0001V46.6667C42.4999 48.0334 41.3666 49.1668 39.9999 49.1668C38.6333 49.1668 37.4999 48.0334 37.4999 46.6667V30.0001ZM42.3666 59.0334C42.1999 59.1667 42.0333 59.3001 41.8666 59.4334C41.6666 59.5667 41.4666 59.6668 41.2666 59.7334C41.0666 59.8334 40.8666 59.9001 40.6333 59.9334C40.4333 59.9667 40.1999 60.0001 39.9999 60.0001C39.7999 60.0001 39.5666 59.9667 39.3333 59.9334C39.1333 59.9001 38.9333 59.8334 38.7333 59.7334C38.5333 59.6668 38.3333 59.5667 38.1333 59.4334C37.9666 59.3001 37.7999 59.1667 37.6333 59.0334C37.0333 58.4001 36.6666 57.5334 36.6666 56.6668C36.6666 55.8001 37.0333 54.9334 37.6333 54.3001C37.7999 54.1668 37.9666 54.0334 38.1333 53.9001C38.3333 53.7668 38.5333 53.6668 38.7333 53.6001C38.9333 53.5001 39.1333 53.4334 39.3333 53.4001C39.7666 53.3001 40.2333 53.3001 40.6333 53.4001C40.8666 53.4334 41.0666 53.5001 41.2666 53.6001C41.4666 53.6668 41.6666 53.7668 41.8666 53.9001C42.0333 54.0334 42.1999 54.1668 42.3666 54.3001C42.9666 54.9334 43.3333 55.8001 43.3333 56.6668C43.3333 57.5334 42.9666 58.4001 42.3666 59.0334Z" fill="#5B94FF"/>
</svg>
