<svg width="62" height="70" viewBox="0 0 62 70" fill="none" xmlns="http://www.w3.org/2000/svg">
<path d="M7.10917 34.4882L6.06781 33.9191C5.77464 33.7594 5.53376 33.5185 5.37407 33.2253L4.80352 32.184C4.7311 32.0461 4.63025 31.9251 4.50763 31.829C4.38501 31.7329 4.24341 31.664 4.09217 31.6266C3.86333 31.5731 3.62326 31.5961 3.4087 31.692C3.19414 31.7878 3.01692 31.9514 2.90414 32.1576L2.31746 33.2253C2.15856 33.5181 1.91874 33.7589 1.62664 33.9191L0.585287 34.4882C0.447437 34.561 0.326531 34.6622 0.230485 34.785C0.134439 34.9079 0.0654182 35.0496 0.0279405 35.201C-0.0252238 35.4296 -0.00210576 35.6693 0.0937648 35.8836C0.189635 36.0979 0.35299 36.2748 0.558887 36.3875L1.62664 36.9742C1.91982 37.1339 2.1607 37.3748 2.32039 37.668L2.89094 38.7093C2.96336 38.8472 3.06421 38.9682 3.18683 39.0643C3.30945 39.1604 3.45105 39.2294 3.60229 39.2667C3.83092 39.3201 4.07075 39.2971 4.28506 39.2012C4.49937 39.1053 4.67633 38.9418 4.78885 38.7357L5.37553 37.668C5.53522 37.3748 5.77611 37.1339 6.06928 36.9742L7.13704 36.3875C7.34294 36.2748 7.50629 36.0979 7.60216 35.8836C7.69803 35.6693 7.72115 35.4296 7.66798 35.201C7.63034 35.0495 7.5611 34.9077 7.46479 34.7848C7.36849 34.662 7.24729 34.5609 7.10917 34.4882Z" fill="#5B94FF"/>
<path d="M52.4699 68.5923C52.4699 68.5923 49.8093 55.4698 49.8093 55.4419C49.8093 51.1767 40.1848 48.874 31.1294 48.874C22.137 48.874 12.5844 51.1445 12.4524 55.3539C12.4524 55.3642 9.75222 68.5923 9.75222 68.5923C9.71742 68.7628 9.72098 68.9389 9.76263 69.1079C9.80429 69.2769 9.883 69.4344 9.99307 69.5692C10.1031 69.704 10.2418 69.8126 10.399 69.8872C10.5563 69.9617 10.7281 70.0004 10.9021 70.0004H51.32C51.494 70.0004 51.6658 69.9617 51.8231 69.8872C51.9803 69.8126 52.119 69.704 52.229 69.5692C52.3391 69.4344 52.4178 69.2769 52.4595 69.1079C52.5011 68.9389 52.5047 68.7628 52.4699 68.5923ZM31.1294 50.6341C41.6134 50.6341 48.0492 53.4355 48.0492 55.4419C48.0492 57.4484 41.6134 60.2498 31.1294 60.2498C20.6454 60.2498 14.2095 57.4498 14.2095 55.4419C14.2095 53.434 20.6469 50.6341 31.1294 50.6341Z" fill="#5B94FF"/>
<path d="M61.9608 19.3169C61.9271 19.1767 61.8638 19.0453 61.7749 18.9317C61.6861 18.8181 61.574 18.7249 61.446 18.6583L60.9283 18.3753C60.6454 18.2209 60.4132 17.9882 60.2595 17.705L59.9749 17.1872C59.908 17.0599 59.8148 16.9481 59.7016 16.8594C59.5883 16.7706 59.4575 16.7069 59.3178 16.6724C59.111 16.6263 58.8948 16.6485 58.7017 16.7358C58.5086 16.8231 58.3491 16.9707 58.2471 17.1564L57.9479 17.705C57.7938 17.9879 57.5617 18.2205 57.2791 18.3753L56.7614 18.6583C56.6334 18.7249 56.5213 18.8181 56.4325 18.9317C56.3437 19.0453 56.2803 19.1767 56.2466 19.3169C56.1999 19.5237 56.2219 19.7401 56.3092 19.9333C56.3966 20.1265 56.5445 20.286 56.7306 20.3876L57.2791 20.6809C57.5618 20.8368 57.7939 21.0704 57.9479 21.3541L58.231 21.8719C58.2985 21.9991 58.3921 22.1106 58.5055 22.1993C58.619 22.288 58.7498 22.3519 58.8896 22.3867C59.0964 22.4331 59.3127 22.411 59.5058 22.3237C59.699 22.2364 59.8585 22.0886 59.9603 21.9027L60.2609 21.3541C60.415 21.0712 60.6472 20.8386 60.9297 20.6838L61.4783 20.3905C61.6647 20.2885 61.8127 20.1285 61.8998 19.9347C61.9869 19.7409 62.0083 19.524 61.9608 19.3169Z" fill="#5B94FF"/>
<path d="M38.2314 32.1869C36.4552 30.22 31.574 25.2464 31.1076 24.7903C30.6412 25.2464 25.7967 30.1819 24.0337 32.1238C23.2916 39.7506 22.3499 49.4206 22.0771 52.2029C22.0683 52.2983 22.0625 52.3936 22.0625 52.4889C22.0542 53.1705 22.2971 53.8312 22.7448 54.3452C23.1924 54.8591 23.8136 55.1903 24.4898 55.2757C26.005 55.4575 27.2076 54.3472 27.5699 52.8629C28.0495 50.8492 30.0486 36.9184 30.65 34.073C30.6732 33.9606 30.7344 33.8596 30.8234 33.7871C30.9124 33.7146 31.0236 33.675 31.1384 33.675C31.2532 33.675 31.3644 33.7146 31.4534 33.7871C31.5424 33.8596 31.6036 33.9606 31.6268 34.073C32.2282 36.9184 34.2258 50.8492 34.7069 52.8629C35.0354 54.2402 36.0944 55.2947 37.4555 55.2947C37.5633 55.2948 37.6711 55.2885 37.7782 55.2757C38.5026 55.1821 39.1613 54.8078 39.6126 54.2334C40.0638 53.659 40.2715 52.9304 40.1909 52.2044C40.0325 50.6878 38.5526 35.4899 38.2314 32.1869Z" fill="#5B94FF"/>
<path d="M51.0549 22.7868C48.4398 21.807 42.4556 18.6536 39.6278 17.0549C37.7314 18.6316 32.8238 23.1329 32.3955 23.5407L32.3706 23.5656C32.8311 24.0144 43.6642 35.6234 45.7308 38.3705C47.2796 40.4312 48.2242 41.914 48.7889 42.9686C49.5471 44.3737 49.6483 45.022 49.6527 45.2493C49.4357 45.2493 48.8534 45.1554 47.6199 44.516C46.4377 43.9029 44.6513 42.7823 42.0098 40.7421C41.9184 40.6699 41.8137 40.6165 41.7015 40.585C41.5894 40.5536 41.4721 40.5447 41.3565 40.5589C41.2409 40.5731 41.1293 40.6101 41.0281 40.6677C40.9269 40.7254 40.8382 40.8025 40.7671 40.8947C40.6959 40.9869 40.6438 41.0924 40.6137 41.2049C40.5836 41.3174 40.5761 41.4347 40.5917 41.5501C40.6073 41.6656 40.6456 41.7767 40.7045 41.8772C40.7634 41.9777 40.8416 42.0655 40.9347 42.1355L41.1561 42.3056C43.4325 44.0525 45.3597 45.3329 46.8851 46.1191C47.7108 46.5429 48.7639 47.0108 49.6718 47.0108C49.7797 47.011 49.8876 47.0036 49.9945 46.9888C50.351 46.947 50.6834 46.7875 50.939 46.5356C51.7384 45.7348 52.0787 44.032 47.5759 37.9026C45.0825 34.5101 41.627 30.4884 37.6654 26.3597C37.5554 25.2289 37.4615 24.274 37.3926 23.5627C37.3785 23.4137 37.402 23.2635 37.4612 23.126C37.5203 22.9885 37.6132 22.8681 37.7311 22.7759C37.849 22.6837 37.9882 22.6227 38.1359 22.5985C38.2836 22.5742 38.435 22.5875 38.5762 22.6372L49.6307 26.5518C50.13 26.7407 50.6839 26.7235 51.1704 26.504C51.657 26.2845 52.0365 25.8807 52.2253 25.3814C52.4142 24.8821 52.397 24.3283 52.1775 23.8417C51.958 23.3551 51.5542 22.9757 51.0549 22.7868Z" fill="#5B94FF"/>
<path d="M20.2541 40.7424C17.5685 42.8163 15.7674 43.9398 14.5853 44.547C13.4031 45.1542 12.8252 45.2451 12.6111 45.2495C12.6184 44.8491 12.9147 43.227 16.3673 38.5937C16.423 38.5203 17.7929 36.7427 17.8487 36.6737C19.6879 34.3564 29.3887 24.0146 29.8492 23.5658C29.4209 23.1566 24.5104 18.6524 22.6125 17.0728C19.773 18.6759 13.8123 21.8131 11.2133 22.7929C10.8325 22.9365 10.5046 23.1929 10.2735 23.5279C10.0423 23.8628 9.91888 24.2604 9.91968 24.6673C9.91988 24.8078 9.93462 24.9479 9.96368 25.0853C10.024 25.3688 10.1447 25.6358 10.3176 25.8683C10.4905 26.1008 10.7116 26.2932 10.9657 26.4325C11.2198 26.5717 11.501 26.6545 11.79 26.6751C12.079 26.6957 12.3691 26.6538 12.6404 26.552L23.6935 22.6374C23.8347 22.5873 23.9862 22.5737 24.1341 22.5978C24.282 22.6219 24.4214 22.6829 24.5394 22.7752C24.6574 22.8675 24.7502 22.988 24.8093 23.1257C24.8683 23.2634 24.8916 23.4138 24.8771 23.5629C24.8082 24.2743 24.7143 25.2291 24.6043 26.3599C20.6442 30.4887 17.1857 34.5104 14.6938 37.9028C10.191 44.0322 10.5313 45.735 11.3306 46.5358C11.5752 46.7745 11.8898 46.9287 12.2283 46.9758C12.3504 46.996 12.4741 47.0058 12.5979 47.0052C13.5028 47.0052 14.5559 46.5373 15.3846 46.1134C16.9584 45.3053 18.9604 43.9662 21.335 42.1328C21.39 42.0904 21.4393 42.0411 21.4817 41.9861C21.6159 41.8178 21.6836 41.6061 21.6722 41.3911C21.6608 41.1761 21.571 40.9727 21.4198 40.8195C21.2685 40.6663 21.0664 40.5738 20.8516 40.5596C20.6367 40.5454 20.4242 40.6104 20.2541 40.7424Z" fill="#5B94FF"/>
<path d="M13.2503 12.9031C13.9837 14.1703 15.0632 15.7588 16.6018 17.7623C16.7439 17.9474 16.9538 18.0685 17.1853 18.0989C17.4168 18.1293 17.6508 18.0665 17.836 17.9244C18.0211 17.7822 18.1422 17.5723 18.1726 17.3408C18.203 17.1093 18.1402 16.8753 17.9981 16.6901C15.9725 14.0501 14.8798 12.29 14.2932 11.1269C13.7065 9.96384 13.6288 9.42996 13.6258 9.22022C14.0306 9.22022 15.6997 9.53263 20.5032 13.1436C20.6205 13.2316 23.0699 15.1413 24.2198 16.1049L24.2066 16.1137C26.0077 17.6303 30.6791 21.9292 31.1074 22.3399C31.1148 22.3311 35.6146 18.1612 37.1473 16.8456C37.1473 16.8456 37.7472 16.3484 38.0391 16.1122C39.3356 15.0181 40.5823 14.0207 41.7557 13.1407C46.5606 9.52969 48.2282 9.22462 48.6345 9.21729C48.6345 9.42556 48.5494 9.96677 47.9818 11.0932C47.3951 12.249 46.3054 14.0266 44.2608 16.6872C44.1904 16.7789 44.1387 16.8835 44.1088 16.9952C44.0788 17.1068 44.0712 17.2233 44.0862 17.3379C44.1013 17.4525 44.1387 17.563 44.1965 17.6631C44.2543 17.7633 44.3312 17.851 44.4229 17.9214C44.5145 17.9918 44.6192 18.0435 44.7308 18.0734C44.8425 18.1034 44.9589 18.1111 45.0735 18.096C45.305 18.0656 45.5149 17.9445 45.6571 17.7594L46.1631 17.0935C50 11.9835 50.6424 9.77023 50.3388 8.64967C50.2654 8.37757 50.12 8.1303 49.9179 7.93392C49.117 7.13457 47.4142 6.7943 41.2849 11.2971C39.7522 12.422 38.0904 13.745 36.3494 15.2234C34.7028 14.5056 32.9257 14.1351 31.1294 14.1351C29.3331 14.1351 27.5561 14.5056 25.9094 15.2234C24.1685 13.745 22.5067 12.422 20.974 11.2971C14.8446 6.7943 13.1418 7.13457 12.3425 7.93392C12.1424 8.12856 11.9981 8.37315 11.9244 8.64234C11.7176 9.38596 11.9244 10.6165 13.2313 12.8664L13.2503 12.9031Z" fill="#5B94FF"/>
<path d="M36.5808 1.6502C36.0734 1.56367 35.4808 1.49326 34.8677 1.43753C33.8392 0.512067 32.5046 0 31.121 0C29.7375 0 28.4029 0.512067 27.3744 1.43753C26.7598 1.49326 26.1673 1.56367 25.6598 1.6502C25.086 1.74847 24.568 2.05363 24.204 2.50796C23.8399 2.96228 23.655 3.53427 23.6841 4.11572C23.7501 5.39909 23.8821 7.94235 26.3477 8.54956C26.8496 9.36422 27.5517 10.0368 28.3871 10.5034C29.2225 10.9699 30.1635 11.2149 31.1203 11.2149C32.0772 11.2149 33.0181 10.9699 33.8535 10.5034C34.689 10.0368 35.391 9.36422 35.893 8.54956C38.3585 7.94381 38.4905 5.39909 38.5565 4.11572C38.5856 3.53427 38.4007 2.96228 38.0367 2.50796C37.6726 2.05363 37.1547 1.74847 36.5808 1.6502ZM34.9675 6.91419C34.2352 6.9635 33.5 6.8866 32.7938 6.68685C31.7 6.37447 30.5406 6.37447 29.4468 6.68685C28.7398 6.88751 28.0035 6.96491 27.2702 6.91566C25.8285 6.82472 25.541 5.95057 25.4427 4.02626C25.4356 3.87517 25.484 3.7267 25.5788 3.60888C25.6737 3.49106 25.8084 3.41205 25.9575 3.38677C27.4242 3.1345 29.8604 3.02157 31.1203 3.02157C32.3802 3.02157 34.8164 3.1345 36.2846 3.38677C36.4337 3.41205 36.5684 3.49106 36.6633 3.60888C36.7581 3.7267 36.8065 3.87517 36.7994 4.02626C36.6996 5.9535 36.4122 6.82325 34.9719 6.91419H34.9675Z" fill="#5B94FF"/>
</svg>
