<svg width="16" height="19" viewBox="0 0 16 19" fill="none" xmlns="http://www.w3.org/2000/svg">
<path fill-rule="evenodd" clip-rule="evenodd" d="M7.33681 0.668503C7.2831 0.677953 7.13368 0.703933 7.00478 0.726273C5.32267 1.01764 3.77888 2.18073 2.98982 3.75116C2.572 4.58272 2.40322 5.2908 2.39857 6.23162C2.39521 6.91432 2.43083 7.16166 2.63325 7.86159C3.14536 9.63246 4.64544 12.1877 6.73677 14.8515C7.6063 15.959 7.68861 16.036 8.00488 16.0362C8.31568 16.0365 8.42998 15.9255 9.39248 14.6887C10.4083 13.3835 11.4151 11.9014 12.0728 10.743C12.826 9.41651 13.2537 8.40444 13.4942 7.3794C13.5913 6.96549 13.603 6.8433 13.6019 6.25116C13.6009 5.7194 13.5837 5.5078 13.5154 5.18912C13.142 3.44705 12.0329 1.99928 10.4723 1.21701C9.69078 0.825263 9.09498 0.684513 8.13758 0.665373C7.75087 0.657683 7.39052 0.659053 7.33681 0.668503ZM7.23267 1.95354C5.61892 2.24635 4.26833 3.47268 3.8072 5.06389C3.45095 6.29326 3.63001 7.39045 4.46638 9.10272C5.08357 10.3662 6.11513 11.9774 7.314 13.5501C7.57361 13.8907 7.82997 14.2286 7.88368 14.301C7.9374 14.3735 7.99013 14.4323 8.00087 14.4315C8.01158 14.4309 8.08308 14.3478 8.15968 14.247C8.23638 14.1462 8.49288 13.8088 8.72978 13.4973C9.90048 11.9578 11.0546 10.1396 11.606 8.966C12.238 7.62084 12.4526 6.68643 12.3382 5.77772C12.0935 3.83369 10.6403 2.28284 8.75548 1.95412C8.35268 1.88389 7.61806 1.88362 7.23267 1.95354ZM7.42759 4.04377C7.09462 4.13104 6.96849 4.19198 6.64197 4.42315C6.07755 4.8228 5.72329 5.51764 5.71993 6.23162C5.71689 6.87498 5.9324 7.40549 6.37923 7.85467C7.29236 8.77256 8.70938 8.77256 9.62248 7.85467C10.0694 7.40549 10.2849 6.87498 10.2818 6.23162C10.2749 4.76026 8.85278 3.67022 7.42759 4.04377ZM7.7272 5.25014C6.99482 5.49045 6.73716 6.31174 7.20263 6.92201C7.42419 7.21252 7.9081 7.35713 8.30198 7.25053C8.83838 7.10537 9.16708 6.45217 8.98008 5.90287C8.91468 5.71061 8.65838 5.42948 8.45298 5.32471C8.28278 5.23787 7.8881 5.19737 7.7272 5.25014ZM3.35243 12.9733C2.42739 13.2933 1.65907 13.7363 1.24462 14.1886C0.565167 14.9301 0.540516 15.8111 1.17751 16.5891C1.85708 17.4192 3.56181 18.0985 5.71572 18.3976C7.13419 18.5946 8.97138 18.5864 10.4423 18.3766C13.2505 17.976 15.0322 16.9769 15.2698 15.6694C15.3936 14.9881 14.9801 14.2353 14.1957 13.7133C13.5546 13.2867 12.3654 12.8023 12.0872 12.8545C11.6563 12.9354 11.4334 13.3646 11.619 13.7558C11.7056 13.9383 11.8251 14.0137 12.2587 14.1591C13.115 14.4464 13.8565 14.9153 13.9927 15.2557C14.0864 15.4899 14.0298 15.6268 13.7196 15.9171C13.0268 16.5651 11.353 17.0738 9.34848 17.2454C8.74538 17.2971 7.25634 17.2971 6.65322 17.2454C4.6488 17.0738 2.97493 16.5651 2.2822 15.9171C1.97193 15.6268 1.91536 15.4899 2.00907 15.2557C2.1456 14.9146 2.88329 14.4491 3.73697 14.1655C4.16224 14.0242 4.29552 13.9397 4.38279 13.7558C4.52411 13.458 4.42302 13.1014 4.1531 12.9457C3.92888 12.8164 3.79247 12.8211 3.35243 12.9733Z" fill="white"/>
</svg>
