<svg width="20" height="15" viewBox="0 0 20 15" fill="none" xmlns="http://www.w3.org/2000/svg">
<path fill-rule="evenodd" clip-rule="evenodd" d="M2.96051 0.949506C1.92524 1.22064 1.16017 2.02893 0.962894 3.05999C0.884764 3.46826 0.884764 11.8203 0.962894 12.2285C1.14607 13.186 1.84079 13.9723 2.78893 14.2951L3.08655 14.3964L9.98759 14.4068C17.7397 14.4184 17.1544 14.4388 17.7815 14.1362C18.6018 13.7403 19.1552 12.9738 19.2869 12.0509C19.3171 11.8399 19.3259 10.5187 19.3175 7.43969C19.3045 2.64043 19.3232 2.99102 19.0504 2.41733C18.6992 1.67886 18.0573 1.15159 17.2619 0.948125C16.9744 0.87462 16.8607 0.873468 10.1025 0.875468C3.43551 0.877478 3.22736 0.87964 2.96051 0.949506ZM3.09629 1.95013C2.53845 2.12845 2.08443 2.619 1.95415 3.18414C1.92993 3.28905 1.91616 4.88288 1.91557 7.64578C1.91479 11.4124 1.92182 11.9715 1.97242 12.1659C2.07695 12.5673 2.33146 12.9104 2.70415 13.1521C3.13841 13.4339 2.58168 13.4152 10.2108 13.4029L17.0374 13.3921L17.2436 13.3085C17.6614 13.1394 18.0341 12.7543 18.2161 12.3034L18.3024 12.09L18.3124 7.75616C18.3192 4.82789 18.3097 3.36108 18.2833 3.23362C18.1594 2.63696 17.7262 2.153 17.1389 1.95516C16.91 1.87804 16.8975 1.87789 10.1097 1.8799C3.62 1.8818 3.30002 1.88499 3.09629 1.95013ZM3.45857 3.93756C3.26493 4.02554 3.19816 4.13247 3.19816 4.35468C3.19816 4.55029 3.20303 4.55925 3.43997 4.8007C3.74585 5.11237 4.63745 5.93161 5.69071 6.86877C6.14087 7.26931 6.53823 7.62959 6.57379 7.6695C6.63647 7.73988 6.59455 7.78569 5.14719 9.22759C4.32707 10.0446 3.6409 10.7414 3.62242 10.776C3.60392 10.8105 3.58878 10.9002 3.58878 10.9751C3.58878 11.0806 3.61743 11.1402 3.71527 11.238C3.85716 11.3799 3.97431 11.3979 4.15329 11.3053C4.2162 11.2728 4.73015 10.7915 5.29541 10.2357C5.86066 9.67997 6.53588 9.01759 6.79588 8.76378L7.26858 8.30226L7.42833 8.43654C7.51616 8.51035 7.76382 8.72302 7.97867 8.90912C8.58123 9.43121 9.05463 9.64064 9.82654 9.72673C10.5209 9.80426 11.2367 9.61026 11.8849 9.16883C11.9975 9.09226 12.2696 8.86854 12.4898 8.67169C12.7099 8.47493 12.9024 8.31416 12.9176 8.31435C12.9327 8.31464 13.6232 8.97826 14.4519 9.78902C15.3246 10.6429 16.0107 11.2852 16.0826 11.3157C16.4055 11.4523 16.7376 11.0779 16.5705 10.7657C16.549 10.7255 15.8624 10.0292 15.0447 9.21835C13.5928 7.77864 13.5597 7.74235 13.6237 7.67026C13.6597 7.62969 14.0575 7.26912 14.5077 6.86911C15.4461 6.03514 16.4997 5.06553 16.7891 4.76959C16.9429 4.61234 16.9918 4.53384 17.0072 4.41896C17.0298 4.25051 16.9561 4.07406 16.8247 3.9821C16.6875 3.88593 16.4214 3.9071 16.2682 4.02633C16.1958 4.08261 15.2176 4.95758 14.0944 5.97071C11.4967 8.31397 11.4001 8.3974 11.1064 8.5514C10.7283 8.74959 10.448 8.80864 9.98759 8.78712C9.37301 8.75826 9.06077 8.61483 8.45578 8.08369C8.28544 7.93407 7.22732 6.98302 6.10437 5.97019C4.98146 4.95732 4.0021 4.08288 3.92803 4.02693C3.76155 3.90114 3.60448 3.87123 3.45857 3.93756Z" fill="white"/>
</svg>
