<svg width="20" height="21" viewBox="0 0 20 21" fill="none" xmlns="http://www.w3.org/2000/svg">
<g clip-path="url(#clip0_1_519)">
<g clip-path="url(#clip1_1_519)">
<g clip-path="url(#clip2_1_519)">
<mask id="mask0_1_519" style="mask-type:luminance" maskUnits="userSpaceOnUse" x="0" y="0" width="20" height="21">
<path d="M20 0.191406H0V20.1914H20V0.191406Z" fill="white"/>
</mask>
<g mask="url(#mask0_1_519)">
<path fill-rule="evenodd" clip-rule="evenodd" d="M10.7905 0.267733C10.4318 0.486443 10.4165 1.00246 10.7621 1.22886C10.8181 1.26558 11.087 1.34605 11.3596 1.40769C13.2244 1.82925 14.7178 2.63191 16.0678 3.93812C17.4509 5.27621 18.4546 7.11343 18.7896 8.92027C18.8559 9.27769 18.9168 9.41679 19.0596 9.53695C19.3402 9.77308 19.7624 9.67922 19.9243 9.34469L20.0097 9.16836L19.9244 8.74027C19.5046 6.63308 18.5108 4.77297 16.9856 3.23953C15.477 1.72277 13.6821 0.736951 11.6081 0.286014C11.073 0.169686 10.9556 0.167069 10.7905 0.267733ZM3.59363 1.36484C3.34679 1.39472 3.05058 1.50175 2.78327 1.65769C2.57488 1.77922 1.32538 2.99066 0.853078 3.52902C0.481281 3.95285 0.229641 4.4184 0.110617 4.90261C0.00194542 5.34484 -0.00641396 6.22965 0.0927657 6.79136C0.693156 10.1918 3.62066 14.446 7.20691 17.1295C8.72402 18.2647 10.5307 19.2475 12.0003 19.7369C12.9861 20.0652 13.5617 20.1684 14.3944 20.1662C14.961 20.1648 15.0523 20.1546 15.371 20.0577C15.763 19.9385 16.1353 19.7485 16.4192 19.5226C16.523 19.44 17.0093 18.9596 17.4996 18.4551C18.2954 17.6365 18.408 17.5044 18.5468 17.2271C18.8471 16.6271 18.8527 16.0941 18.5648 15.5023C18.4317 15.2284 18.3266 15.1133 16.9553 13.7391C15.5794 12.3605 15.4699 12.2601 15.1952 12.1267C14.6371 11.8557 14.0966 11.8575 13.5475 12.1322C13.3201 12.246 13.1255 12.4105 12.4239 13.0818L11.5755 13.8938L11.1617 13.668C9.44245 12.7296 7.34659 10.6157 6.42452 8.89L6.25378 8.57043L7.00714 7.80785C8.00816 6.79465 8.18816 6.51254 8.23171 5.88863C8.25738 5.52113 8.1996 5.25816 8.01378 4.89683C7.89503 4.66593 7.72406 4.47175 6.91503 3.64902C5.08113 1.78398 4.83835 1.5732 4.35534 1.42629C4.10831 1.35117 3.86722 1.33172 3.59363 1.36484ZM3.49148 2.59195C3.34972 2.66261 3.0539 2.93414 2.41691 3.57828C1.23839 4.77 1.19023 4.86039 1.193 5.8734C1.19452 6.41578 1.20909 6.55957 1.30323 6.96121C1.68355 8.58328 2.67777 10.5624 3.96511 12.2601C5.9264 14.8466 8.16288 16.7111 10.8788 18.0241C12.1818 18.6539 13.1843 18.9634 14.1605 19.0371C14.6429 19.0735 14.9873 19.0128 15.371 18.8237C15.6599 18.6814 15.75 18.6025 16.5646 17.7794C17.1621 17.1756 17.4734 16.8316 17.5314 16.7106C17.6319 16.5014 17.6412 16.2609 17.5567 16.0577C17.4817 15.8774 14.8931 13.2668 14.6792 13.1557C14.5043 13.0649 14.2673 13.059 14.072 13.1406C13.9804 13.1789 13.6066 13.5201 13.0474 14.0759C11.8275 15.2882 11.8014 15.2974 10.9071 14.8334C9.73906 14.2273 8.71867 13.446 7.61679 12.3139C6.5423 11.21 5.79464 10.2156 5.33589 9.2805C5.07027 8.73906 5.01777 8.52777 5.08171 8.25793C5.12554 8.07312 5.18695 8.00156 6.07226 7.10386C6.84718 6.31808 7.02441 6.11804 7.06265 5.98605C7.19054 5.54465 7.15671 5.49672 5.65171 3.98726C4.29741 2.62902 4.13308 2.49449 3.828 2.49449C3.7505 2.49449 3.59906 2.53836 3.49148 2.59195ZM10.6813 3.86008C10.6372 3.87797 10.5449 3.95656 10.4762 4.03472C10.3689 4.15699 10.3514 4.20636 10.3514 4.38738C10.3514 4.55746 10.3711 4.62121 10.4537 4.71945C10.588 4.87906 10.6979 4.93113 11.0741 5.01355C12.078 5.23347 12.9576 5.72113 13.7131 6.4766C14.4876 7.25121 14.9423 8.09859 15.2116 9.26965C15.2996 9.65238 15.4949 9.8384 15.8085 9.83808C16.0896 9.83781 16.3666 9.57273 16.3669 9.30367C16.3671 9.10918 16.2601 8.64808 16.1116 8.20453C15.3944 6.06105 13.5857 4.41672 11.3753 3.89851C11.0337 3.81843 10.8142 3.80629 10.6813 3.86008Z" fill="white"/>
</g>
</g>
</g>
</g>
<defs>
<clipPath id="clip0_1_519">
<rect width="20" height="20" fill="white" transform="translate(0 0.191406)"/>
</clipPath>
<clipPath id="clip1_1_519">
<rect width="20" height="20" fill="white" transform="translate(0 0.191406)"/>
</clipPath>
<clipPath id="clip2_1_519">
<rect width="20" height="20" fill="white" transform="translate(0 0.191406)"/>
</clipPath>
</defs>
</svg>
