<svg width="68" height="69" viewBox="0 0 68 69" fill="none" xmlns="http://www.w3.org/2000/svg">
<path d="M43.18 32.36C42.908 32.496 42.7153 32.7 42.602 32.972C42.4887 33.244 42.5 33.516 42.636 33.788C43.452 35.7373 44.0187 37.596 44.336 39.364C44.6533 41.132 44.6873 42.662 44.438 43.954C44.1887 45.246 43.656 46.1186 42.84 46.572C42.2053 46.9346 41.378 47.0026 40.358 46.776C39.338 46.5493 38.2613 46.028 37.128 45.212C35.768 44.26 34.544 43.1493 33.456 41.88C34.4987 40.8826 35.1107 39.67 35.292 38.242C35.4733 36.814 35.2127 35.4766 34.51 34.23C33.8073 32.9833 32.7873 32.0766 31.45 31.51C30.1127 30.9433 28.7413 30.864 27.336 31.272C26.792 29.6853 26.452 28.076 26.316 26.444C26.18 24.9933 26.2593 23.7806 26.554 22.806C26.8487 21.8313 27.336 21.1626 28.016 20.8C28.5147 20.528 29.0587 20.4146 29.648 20.46C29.9653 20.46 30.2373 20.3693 30.464 20.188C30.6907 20.0066 30.804 19.7686 30.804 19.474C30.804 19.1793 30.7133 18.93 30.532 18.726C30.3507 18.522 30.124 18.3973 29.852 18.352C28.8093 18.2613 27.8347 18.4653 26.928 18.964C26.6107 19.1453 23.052 22.8173 16.252 29.98L6.18801 40.724L2.65201 42.764C1.38268 43.4893 0.555346 44.566 0.170013 45.994C-0.21532 47.422 -0.0453203 48.7706 0.680013 50.04L3.87601 55.548C4.60135 56.8626 5.68935 57.7013 7.14001 58.064C7.59335 58.1546 8.04668 58.2 8.50001 58.2C9.45201 58.2 10.336 57.9733 11.152 57.52L13.94 55.888L20.808 67.856C20.944 68.128 21.1593 68.298 21.454 68.366C21.7487 68.434 22.032 68.4 22.304 68.264L29.104 64.32C30.0107 63.8213 30.5433 63.062 30.702 62.042C30.8607 61.022 30.5773 60.1266 29.852 59.356L23.936 53.236L33.66 50.992C40.188 49.4506 43.6107 48.5893 43.928 48.408C45.1067 47.728 45.9227 46.6286 46.376 45.11C46.8293 43.5913 46.8974 41.7666 46.58 39.636C46.2627 37.5053 45.5827 35.2613 44.54 32.904C44.404 32.632 44.2113 32.4506 43.962 32.36C43.7127 32.2693 43.452 32.2693 43.18 32.36ZM32.64 35.284C33.0933 36.0546 33.2747 36.8933 33.184 37.8C33.0933 38.7066 32.7533 39.5 32.164 40.18C30.532 38.0493 29.1947 35.7373 28.152 33.244C29.0587 33.0626 29.92 33.1646 30.736 33.55C31.552 33.9353 32.1867 34.5133 32.64 35.284ZM10.064 55.684C9.29335 56.1373 8.48868 56.2393 7.65001 55.99C6.81135 55.7406 6.16535 55.2306 5.71201 54.46L8.50001 52.896L7.41201 51.06L4.69201 52.624L3.60401 50.788L6.39201 49.224L5.30401 47.388L2.58401 48.952C2.13068 48.1813 2.01735 47.3766 2.24401 46.538C2.47068 45.6993 2.96935 45.0533 3.74001 44.6L6.46001 43.036L12.852 54.052L10.064 55.684ZM28.288 60.784C28.56 61.056 28.6733 61.362 28.628 61.702C28.5827 62.042 28.4013 62.3026 28.084 62.484L22.1 65.884L15.912 55.14L21.556 53.78L28.288 60.784ZM14.824 53.236L8.16001 41.744L24.14 24.88C24.14 25.4693 24.1627 26.0586 24.208 26.648C24.752 30.6373 26.044 34.3886 28.084 37.902C30.124 41.4153 32.7307 44.4186 35.904 46.912C36.3573 47.2293 36.8333 47.524 37.332 47.796L14.824 53.236ZM64.804 0.399963H35.088C34.2267 0.399963 33.4787 0.717293 32.844 1.35196C32.2093 1.98663 31.892 2.73463 31.892 3.59596V24.812C31.892 25.6733 32.2093 26.4213 32.844 27.056C33.4787 27.6906 34.2267 28.008 35.088 28.008H39.44L36.312 32.768C36.0853 33.2213 36.1307 33.6293 36.448 33.992C36.7653 34.3546 37.1507 34.468 37.604 34.332L51.748 28.008H64.804C65.6653 28.008 66.4134 27.6906 67.048 27.056C67.6827 26.4213 68 25.6733 68 24.812V3.59596C68 2.73463 67.6827 1.98663 67.048 1.35196C66.4134 0.717293 65.6653 0.399963 64.804 0.399963ZM65.892 24.812C65.892 25.1293 65.79 25.39 65.586 25.594C65.382 25.798 65.1213 25.9 64.804 25.9H51.544C51.3627 25.9 51.204 25.9226 51.068 25.968L40.12 30.864L42.296 27.532C42.4774 27.1693 42.4774 26.8066 42.296 26.444C42.1147 26.0813 41.82 25.9 41.412 25.9H35.088C34.7707 25.9 34.51 25.798 34.306 25.594C34.102 25.39 34 25.1293 34 24.812V3.59596C34 3.27863 34.102 3.01796 34.306 2.81396C34.51 2.60996 34.7707 2.50796 35.088 2.50796H64.804C65.1213 2.50796 65.382 2.60996 65.586 2.81396C65.79 3.01796 65.892 3.27863 65.892 3.59596V24.812ZM59.5 5.70396H55.284C54.9667 5.70396 54.706 5.80596 54.502 6.00996C54.298 6.21396 54.196 6.47463 54.196 6.79196V21.616C54.196 21.9333 54.298 22.194 54.502 22.398C54.706 22.602 54.9667 22.704 55.284 22.704H59.5C59.8173 22.704 60.078 22.602 60.282 22.398C60.486 22.194 60.588 21.9333 60.588 21.616V6.79196C60.588 6.47463 60.486 6.21396 60.282 6.00996C60.078 5.80596 59.8173 5.70396 59.5 5.70396ZM58.412 20.596H56.304V7.81196H58.412V20.596ZM52.088 9.98796H47.804C47.532 9.98796 47.294 10.09 47.09 10.294C46.886 10.498 46.784 10.736 46.784 11.008V21.616C46.784 21.888 46.886 22.1373 47.09 22.364C47.294 22.5906 47.532 22.704 47.804 22.704H52.088C52.36 22.704 52.598 22.5906 52.802 22.364C53.006 22.1373 53.108 21.888 53.108 21.616V11.008C53.108 10.736 53.006 10.498 52.802 10.294C52.598 10.09 52.36 9.98796 52.088 9.98796ZM51 20.596H48.892V12.096H51V20.596ZM44.608 14.204H40.392C40.0747 14.204 39.814 14.306 39.61 14.51C39.406 14.714 39.304 14.9746 39.304 15.292V21.616C39.304 21.9333 39.406 22.194 39.61 22.398C39.814 22.602 40.0747 22.704 40.392 22.704H44.608C44.9254 22.704 45.186 22.602 45.39 22.398C45.594 22.194 45.696 21.9333 45.696 21.616V15.292C45.696 14.9746 45.594 14.714 45.39 14.51C45.186 14.306 44.9254 14.204 44.608 14.204ZM43.588 20.596H41.412V16.312H43.588V20.596Z" fill="#5B94FF"/>
</svg>
