<svg width="68" height="70" viewBox="0 0 68 70" fill="none" xmlns="http://www.w3.org/2000/svg">
<path d="M24.2761 33.9119C23.4601 33.9119 22.7008 34.1386 21.9981 34.5919C21.2954 35.0453 20.7854 35.6573 20.4681 36.4279C19.8788 35.9293 19.2441 35.4986 18.5641 35.1359C18.3828 34.9546 18.1788 34.8526 17.9521 34.8299C17.7254 34.8073 17.5101 34.8413 17.3061 34.9319C17.1021 35.0226 16.9434 35.1699 16.8301 35.3739C16.7168 35.5779 16.6828 35.8046 16.7281 36.0539C16.7734 36.3033 16.8754 36.5073 17.0341 36.6659C17.1928 36.8246 17.3854 36.9266 17.6121 36.9719C19.0174 37.6973 20.1281 38.7513 20.9441 40.1339C21.7601 41.5166 22.1681 43.0013 22.1681 44.5879C22.1228 44.8146 22.1341 45.0299 22.2021 45.2339C22.2701 45.4379 22.3948 45.6079 22.5761 45.7439C22.7574 45.8799 22.9728 45.9479 23.2221 45.9479C23.4714 45.9479 23.6868 45.8799 23.8681 45.7439C24.0494 45.6079 24.1741 45.4379 24.2421 45.2339C24.3101 45.0299 24.3214 44.8146 24.2761 44.5879C24.2761 42.2306 23.5734 40.0999 22.1681 38.1959C22.1681 37.6066 22.3721 37.1079 22.7801 36.6999C23.1881 36.2919 23.6868 36.0879 24.2761 36.0879C24.5934 36.0879 24.8541 35.9859 25.0581 35.7819C25.2621 35.5779 25.3641 35.3173 25.3641 34.9999C25.3641 34.6826 25.2621 34.4219 25.0581 34.2179C24.8541 34.0139 24.5934 33.9119 24.2761 33.9119ZM63.7841 30.7159C62.7868 30.7159 61.9028 31.0106 61.1321 31.5999C60.3615 32.1893 59.8628 32.9599 59.6361 33.9119H35.0881V25.4119H46.7841C47.1921 25.4119 47.5095 25.2306 47.7361 24.8679L49.5721 21.1959H53.3121C53.5841 22.2386 54.1621 23.0659 55.0461 23.6779C55.9301 24.2899 56.9161 24.5279 58.0041 24.3919C59.0921 24.2559 59.9875 23.7799 60.6901 22.9639C61.3928 22.1479 61.7441 21.2073 61.7441 20.1419C61.7441 19.0766 61.3928 18.1359 60.6901 17.3199C59.9875 16.5039 59.0921 16.0279 58.0041 15.8919C56.9161 15.7559 55.9301 15.9939 55.0461 16.6059C54.1621 17.2179 53.5841 18.0453 53.3121 19.0879H48.8921C48.4841 19.0879 48.1668 19.2693 47.9401 19.6319L46.1041 23.3039H35.0881V15.8919H44.6081C45.0161 15.8919 45.3335 15.7106 45.5601 15.3479L49.1641 9.02395C49.7535 9.34128 50.3655 9.49995 51.0001 9.49995C51.9975 9.49995 52.8815 9.20528 53.6521 8.61595C54.4228 8.02661 54.9328 7.24461 55.1821 6.26995C55.4315 5.29528 55.3521 4.36595 54.9441 3.48195C54.5361 2.59795 53.9015 1.91795 53.0401 1.44195C52.1788 0.965947 51.2608 0.818614 50.2861 0.999947C49.3115 1.18128 48.4955 1.64595 47.8381 2.39395C47.1808 3.14195 46.8295 4.00328 46.7841 4.97795C46.7388 5.95261 46.9881 6.84795 47.5321 7.66395L43.9961 13.7159H35.0881V2.08795C35.0881 1.77061 34.9861 1.50995 34.7821 1.30595C34.5781 1.10195 34.3175 0.999947 34.0001 0.999947C32.4135 0.999947 30.9515 1.39661 29.6141 2.18995C28.2768 2.98328 27.2455 4.08261 26.5201 5.48795C24.7521 5.12528 23.0294 5.19328 21.3521 5.69195C19.6748 6.19061 18.2128 7.05195 16.9661 8.27595C15.7194 9.49995 14.8241 10.9733 14.2801 12.6959C12.4214 12.7866 10.7328 13.3193 9.21412 14.2939C7.69545 15.2686 6.49412 16.5493 5.61012 18.1359C4.72612 19.7226 4.28412 21.4453 4.28412 23.3039C4.28412 24.3013 4.42012 25.2759 4.69212 26.2279C3.24145 27.2253 2.10812 28.4946 1.29212 30.0359C0.476115 31.5773 0.0681152 33.2319 0.0681152 34.9999C0.0681152 36.7679 0.476115 38.4226 1.29212 39.9639C2.10812 41.5053 3.24145 42.7746 4.69212 43.7719C4.42012 44.7239 4.28412 45.6986 4.28412 46.6959C4.28412 48.5546 4.72612 50.2773 5.61012 51.864C6.49412 53.4506 7.69545 54.7313 9.21412 55.706C10.7328 56.6806 12.4214 57.2133 14.2801 57.304C14.8241 59.0266 15.7194 60.5 16.9661 61.724C18.2128 62.948 19.6748 63.8093 21.3521 64.308C23.0294 64.8066 24.7521 64.8746 26.5201 64.512C27.2455 65.872 28.2768 66.96 29.6141 67.776C30.9515 68.592 32.4135 69 34.0001 69C34.3175 69 34.5781 68.898 34.7821 68.694C34.9861 68.49 35.0881 68.2293 35.0881 67.912V56.216H43.9961L47.5321 62.336C46.8975 63.2426 46.6255 64.24 46.7161 65.328C46.8068 66.416 47.2601 67.334 48.0761 68.082C48.8921 68.83 49.8441 69.2153 50.9321 69.238C52.0201 69.2606 52.9835 68.9206 53.8221 68.218C54.6608 67.5153 55.1708 66.62 55.3521 65.532C55.5335 64.444 55.3181 63.4466 54.7061 62.54C54.0941 61.6333 53.2668 61.0326 52.2241 60.738C51.1815 60.4433 50.1615 60.5226 49.1641 60.976L45.5601 54.652C45.3335 54.2893 45.0161 54.108 44.6081 54.108H35.0881V46.6959H46.1041L47.9401 50.368C48.1668 50.7306 48.4841 50.912 48.8921 50.912H53.3121C53.5841 51.9546 54.1621 52.782 55.0461 53.394C55.9301 54.006 56.9161 54.244 58.0041 54.108C59.0921 53.972 59.9875 53.496 60.6901 52.68C61.3928 51.864 61.7441 50.9233 61.7441 49.858C61.7441 48.7926 61.3928 47.852 60.6901 47.0359C59.9875 46.2199 59.0921 45.7439 58.0041 45.6079C56.9161 45.4719 55.9301 45.7099 55.0461 46.3219C54.1621 46.9339 53.5841 47.7613 53.3121 48.804H49.5041L47.7361 45.1319C47.5095 44.7693 47.1921 44.5879 46.7841 44.5879H35.0881V36.0879H59.6361C59.9535 37.1306 60.5655 37.9353 61.4721 38.5019C62.3788 39.0686 63.3648 39.2613 64.4301 39.0799C65.4955 38.8986 66.3681 38.3659 67.0481 37.4819C67.7281 36.5979 68.0115 35.6233 67.8981 34.5579C67.7848 33.4926 67.3315 32.5859 66.5381 31.8379C65.7448 31.0899 64.8041 30.7159 63.7161 30.7159H63.7841ZM57.3921 17.9999C57.9815 17.9999 58.4801 18.2039 58.8881 18.6119C59.2961 19.0199 59.5001 19.5186 59.5001 20.1079C59.5001 20.6973 59.2961 21.1959 58.8881 21.6039C58.4801 22.0119 57.9815 22.2159 57.3921 22.2159C56.8028 22.2159 56.3041 22.0119 55.8961 21.6039C55.4881 21.1959 55.2841 20.6973 55.2841 20.1079C55.2841 19.5186 55.4881 19.0199 55.8961 18.6119C56.3041 18.2039 56.8028 17.9999 57.3921 17.9999ZM51.0001 3.10795C51.5895 3.10795 52.0881 3.31195 52.4961 3.71995C52.9041 4.12795 53.1081 4.62661 53.1081 5.21595C53.1081 5.80528 52.9041 6.30395 52.4961 6.71195C52.0881 7.11995 51.5895 7.32395 51.0001 7.32395C50.4108 7.32395 49.9121 7.11995 49.5041 6.71195C49.0961 6.30395 48.8921 5.80528 48.8921 5.21595C48.8921 4.62661 49.0961 4.12795 49.5041 3.71995C49.9121 3.31195 50.4108 3.10795 51.0001 3.10795ZM53.1081 64.784C53.1081 65.3733 52.8928 65.8606 52.4621 66.246C52.0315 66.6313 51.5328 66.824 50.9661 66.824C50.3995 66.824 49.9121 66.6086 49.5041 66.178C49.0961 65.7473 48.8921 65.2486 48.8921 64.682C48.8921 64.1153 49.0961 63.628 49.5041 63.22C49.9121 62.812 50.4108 62.608 51.0001 62.608C51.5895 62.608 52.0881 62.8233 52.4961 63.254C52.9041 63.6846 53.1081 64.1946 53.1081 64.784ZM57.3921 47.716C57.9815 47.716 58.4801 47.92 58.8881 48.328C59.2961 48.736 59.5001 49.2233 59.5001 49.79C59.5001 50.3566 59.2961 50.8553 58.8881 51.286C58.4801 51.7166 57.9928 51.932 57.4261 51.932C56.8595 51.932 56.3608 51.7393 55.9301 51.354C55.4995 50.9686 55.2841 50.4813 55.2841 49.892C55.2841 49.3026 55.4881 48.7926 55.8961 48.362C56.3041 47.9313 56.8028 47.716 57.3921 47.716ZM28.0841 62.88C27.9028 62.472 27.5855 62.268 27.1321 62.268C27.0415 62.268 26.9281 62.268 26.7921 62.268C25.6588 62.5853 24.5141 62.6646 23.3581 62.506C22.2021 62.3473 21.1254 61.9733 20.1281 61.384C19.1308 60.7946 18.2921 60.0353 17.6121 59.106C16.9321 58.1766 16.4561 57.1453 16.1841 56.012L16.1161 55.944C15.9801 55.3546 15.9121 54.7426 15.9121 54.108C15.9121 52.3853 16.3881 50.8213 17.3401 49.416C17.5214 49.28 17.6461 49.0986 17.7141 48.872C17.7821 48.6453 17.7821 48.4186 17.7141 48.192C17.6461 47.9653 17.5101 47.7953 17.3061 47.682C17.1021 47.5686 16.8868 47.5006 16.6601 47.4779C16.4334 47.4553 16.2294 47.5119 16.0481 47.6479C15.8668 47.784 15.7308 47.9653 15.6401 48.192C14.4161 49.96 13.8041 51.932 13.8041 54.108L13.8721 55.128C12.1041 54.9013 10.5514 54.1986 9.21412 53.02C7.87678 51.8413 7.00412 50.3906 6.59612 48.668C6.18812 46.9453 6.30145 45.2566 6.93612 43.6019C7.57078 41.9473 8.63612 40.6213 10.1321 39.6239C10.3134 39.4426 10.4154 39.2273 10.4381 38.9779C10.4608 38.7286 10.4041 38.5019 10.2681 38.2979C10.1321 38.0939 9.93945 37.9466 9.69012 37.8559C9.44078 37.7653 9.20278 37.7653 8.97612 37.8559C7.48012 38.8533 6.32412 40.1453 5.50812 41.7319C4.37478 40.8706 3.51345 39.7939 2.92412 38.5019C2.33478 37.2099 2.08545 35.8499 2.17612 34.4219C2.26678 32.9939 2.69745 31.6793 3.46812 30.4779C4.23878 29.2766 5.23612 28.3133 6.46012 27.5879L6.73212 27.4519C8.54545 26.4999 10.4381 26.2279 12.4101 26.6359C14.3821 27.0439 16.0028 28.0413 17.2721 29.6279C17.4534 29.7639 17.6688 29.8319 17.9181 29.8319C18.1674 29.8319 18.3828 29.7526 18.5641 29.5939C18.7454 29.4353 18.8701 29.2426 18.9381 29.0159C19.0061 28.7893 18.9948 28.5626 18.9041 28.3359C17.4081 26.5226 15.5268 25.3213 13.2601 24.7319C10.9934 24.1426 8.77212 24.3013 6.59612 25.2079C6.46012 24.5733 6.39212 23.9386 6.39212 23.3039C6.39212 21.1733 7.10612 19.3033 8.53412 17.6939C9.96212 16.0846 11.7414 15.1439 13.8721 14.8719L13.8041 15.8919C13.8041 17.1159 14.0081 18.2946 14.4161 19.4279C14.5521 19.8359 14.8354 20.0853 15.2661 20.1759C15.6968 20.2666 16.0481 20.1419 16.3201 19.8019C16.5921 19.4619 16.6374 19.0879 16.4561 18.6799C15.9121 17.1839 15.7988 15.6426 16.1161 14.0559C16.1161 14.0106 16.1388 13.9879 16.1841 13.9879C16.5014 12.5373 17.1474 11.2679 18.1221 10.1799C19.0968 9.09195 20.2754 8.30995 21.6581 7.83395C23.0408 7.35795 24.4574 7.24461 25.9081 7.49395C27.3588 7.74328 28.6508 8.32128 29.7841 9.22795C30.1015 9.63595 30.4981 9.77195 30.9741 9.63595C31.4501 9.49995 31.7108 9.18261 31.7561 8.68395C31.8015 8.18528 31.5975 7.82261 31.1441 7.59595C30.3735 6.96128 29.5348 6.46261 28.6281 6.09995C29.0815 5.32928 29.6821 4.68328 30.4301 4.16195C31.1781 3.64061 32.0055 3.31195 32.9121 3.17595V22.1479C30.7815 21.8759 29.0135 20.9353 27.6081 19.3259C26.2028 17.7166 25.5001 15.8466 25.5001 13.7159C25.4548 13.4893 25.3301 13.2966 25.1261 13.1379C24.9221 12.9793 24.6954 12.8999 24.4461 12.8999C24.1968 12.8999 23.9701 12.9793 23.7661 13.1379C23.5621 13.2966 23.4374 13.4893 23.3921 13.7159C23.3921 14.8946 23.5734 16.0506 23.9361 17.1839C23.0294 17.4559 22.2588 17.9206 21.6241 18.5779C20.9894 19.2353 20.5588 20.0173 20.3321 20.9239C20.2868 21.1959 20.3434 21.4679 20.5021 21.7399C20.6608 22.0119 20.8761 22.1706 21.1481 22.2159H21.4201C21.6468 22.2159 21.8508 22.1479 22.0321 22.0119C22.2134 21.8759 22.3494 21.6946 22.4401 21.4679C22.5761 20.9239 22.8481 20.4366 23.2561 20.0059C23.6641 19.5753 24.1401 19.2919 24.6841 19.1559L24.8201 19.0879C25.6814 20.5386 26.8261 21.7286 28.2541 22.6579C29.6821 23.5873 31.2348 24.1426 32.9121 24.3239V47.784C31.7335 47.9653 30.6341 48.362 29.6141 48.974C28.5941 49.586 27.7441 50.3906 27.0641 51.388C26.8828 51.524 26.7581 51.7053 26.6901 51.932C26.6221 52.1586 26.6221 52.3853 26.6901 52.612C26.7581 52.8386 26.8941 53.0086 27.0981 53.122C27.3021 53.2353 27.5175 53.3033 27.7441 53.326C27.9708 53.3486 28.1748 53.292 28.3561 53.156C28.5375 53.02 28.6735 52.8386 28.7641 52.612C29.2628 51.932 29.8635 51.354 30.5661 50.878C31.2688 50.402 32.0508 50.096 32.9121 49.96V66.824C31.8241 66.6426 30.8495 66.2006 29.9881 65.498C29.1268 64.7953 28.4921 63.9226 28.0841 62.88ZM63.7841 37.1079C63.1948 37.1079 62.6961 36.9039 62.2881 36.4959C61.8801 36.0879 61.6761 35.5893 61.6761 34.9999C61.6761 34.4106 61.8801 33.9119 62.2881 33.5039C62.6961 33.0959 63.1948 32.8919 63.7841 32.8919C64.3735 32.8919 64.8721 33.0959 65.2801 33.5039C65.6881 33.9119 65.8921 34.4106 65.8921 34.9999C65.8921 35.5893 65.6881 36.0879 65.2801 36.4959C64.8721 36.9039 64.3735 37.1079 63.7841 37.1079ZM53.1081 10.5879H55.2841V12.6959H53.1081V10.5879ZM57.3921 10.5879H63.7841V12.6959H57.3921V10.5879ZM52.0881 28.6079H54.1961V30.7159H52.0881V28.6079ZM43.5881 28.6079H49.9121V30.7159H43.5881V28.6079ZM61.6081 57.304H63.7841V59.412H61.6081V57.304ZM53.1081 57.304H59.5001V59.412H53.1081V57.304ZM43.5881 39.2159H45.6961V41.3919H43.5881V39.2159ZM47.8041 39.2159H54.1961V41.3919H47.8041V39.2159Z" fill="#5B94FF"/>
</svg>
