<svg width="68" height="68" viewBox="0 0 68 68" fill="none" xmlns="http://www.w3.org/2000/svg">
<path d="M62.696 -4.25122e-05H35.088C33.6373 -4.25122e-05 32.3907 0.521291 31.348 1.56396C30.3053 2.60662 29.784 3.85329 29.784 5.30396V20.196C29.784 21.6466 30.3053 22.8933 31.348 23.936C32.3907 24.9786 33.6373 25.5 35.088 25.5H52.224L58.684 33.592C58.9107 33.864 59.1827 34 59.5 34C59.636 34 59.7493 33.9773 59.84 33.932C60.0667 33.8413 60.248 33.7053 60.384 33.524C60.52 33.3426 60.588 33.1386 60.588 32.912V25.5H62.696C64.1467 25.5 65.3933 24.9786 66.436 23.936C67.4787 22.8933 68 21.6466 68 20.196V5.30396C68 3.85329 67.4787 2.60662 66.436 1.56396C65.3933 0.521291 64.1467 -4.25122e-05 62.696 -4.25122e-05ZM65.892 20.196C65.892 21.0573 65.5747 21.8053 64.94 22.44C64.3053 23.0746 63.5573 23.392 62.696 23.392H59.5C59.228 23.392 58.9787 23.494 58.752 23.698C58.5253 23.902 58.412 24.14 58.412 24.412V29.92L53.516 23.8C53.2893 23.528 53.0173 23.392 52.7 23.392H35.088C34.2267 23.392 33.4787 23.0746 32.844 22.44C32.2093 21.8053 31.892 21.0573 31.892 20.196V5.30396C31.892 4.44262 32.2093 3.69462 32.844 3.05996C33.4787 2.42529 34.2267 2.10796 35.088 2.10796H62.696C63.5573 2.10796 64.3053 2.42529 64.94 3.05996C65.5747 3.69462 65.892 4.44262 65.892 5.30396V20.196ZM48.892 9.58796C48.2573 9.58796 47.668 9.76929 47.124 10.132C46.58 10.4946 46.1833 10.982 45.934 11.594C45.6847 12.206 45.628 12.8293 45.764 13.464C45.9 14.0986 46.1947 14.6426 46.648 15.096C47.1013 15.5493 47.6567 15.8326 48.314 15.946C48.9713 16.0593 49.5947 15.98 50.184 15.708C50.7733 15.436 51.238 15.028 51.578 14.484C51.918 13.94 52.088 13.3506 52.088 12.716C52.088 11.8546 51.7707 11.118 51.136 10.506C50.5013 9.89396 49.7533 9.58796 48.892 9.58796ZM48.892 13.804C48.3933 13.8493 48.042 13.6453 47.838 13.192C47.634 12.7386 47.702 12.3306 48.042 11.968C48.382 11.6053 48.7787 11.5146 49.232 11.696C49.6853 11.8773 49.912 12.2173 49.912 12.716C49.912 12.988 49.81 13.2373 49.606 13.464C49.402 13.6906 49.164 13.804 48.892 13.804ZM40.392 9.58796C39.7573 9.58796 39.168 9.76929 38.624 10.132C38.08 10.4946 37.6833 10.982 37.434 11.594C37.1847 12.206 37.128 12.8293 37.264 13.464C37.4 14.0986 37.6947 14.6426 38.148 15.096C38.6013 15.5493 39.1567 15.8326 39.814 15.946C40.4713 16.0593 41.0947 15.98 41.684 15.708C42.2733 15.436 42.738 15.028 43.078 14.484C43.418 13.94 43.588 13.3506 43.588 12.716C43.588 11.8546 43.2707 11.118 42.636 10.506C42.0013 9.89396 41.2533 9.58796 40.392 9.58796ZM40.392 13.804C39.8933 13.8493 39.542 13.6453 39.338 13.192C39.134 12.7386 39.202 12.3306 39.542 11.968C39.882 11.6053 40.2787 11.5146 40.732 11.696C41.1853 11.8773 41.412 12.2173 41.412 12.716C41.412 12.988 41.31 13.2373 41.106 13.464C40.902 13.6906 40.664 13.804 40.392 13.804ZM57.392 9.58796C56.7573 9.58796 56.168 9.76929 55.624 10.132C55.08 10.4946 54.6833 10.982 54.434 11.594C54.1847 12.206 54.128 12.8293 54.264 13.464C54.4 14.0986 54.6947 14.6426 55.148 15.096C55.6013 15.5493 56.1567 15.8326 56.814 15.946C57.4713 16.0593 58.0947 15.98 58.684 15.708C59.2733 15.436 59.738 15.028 60.078 14.484C60.418 13.94 60.588 13.3506 60.588 12.716C60.588 11.8546 60.2707 11.118 59.636 10.506C59.0013 9.89396 58.2533 9.58796 57.392 9.58796ZM57.392 13.804C56.8933 13.8493 56.542 13.6453 56.338 13.192C56.134 12.7386 56.202 12.3306 56.542 11.968C56.882 11.6053 57.2787 11.5146 57.732 11.696C58.1853 11.8773 58.412 12.2173 58.412 12.716C58.412 12.988 58.31 13.2373 58.106 13.464C57.902 13.6906 57.664 13.804 57.392 13.804ZM32.912 34H5.304C3.85333 34 2.60667 34.5213 1.564 35.564C0.521333 36.6066 0 37.8533 0 39.304V54.196C0 55.6466 0.521333 56.8933 1.564 57.936C2.60667 58.9786 3.85333 59.5 5.304 59.5H7.412V66.912C7.412 67.4106 7.65 67.7393 8.126 67.898C8.602 68.0566 8.99867 67.9546 9.316 67.592L15.844 59.5H32.912C34.408 59.5 35.6773 58.99 36.72 57.97C37.7627 56.95 38.284 55.692 38.284 54.196V39.304C38.284 37.808 37.7627 36.55 36.72 35.53C35.6773 34.51 34.408 34 32.912 34ZM36.108 54.196C36.108 55.0573 35.7907 55.8053 35.156 56.44C34.5213 57.0746 33.7733 57.392 32.912 57.392H15.3C14.9827 57.392 14.7107 57.528 14.484 57.8L9.588 63.92V58.412C9.588 58.14 9.47467 57.902 9.248 57.698C9.02133 57.494 8.772 57.392 8.5 57.392H5.304C4.44267 57.392 3.69467 57.0746 3.06 56.44C2.42533 55.8053 2.108 55.0573 2.108 54.196V39.304C2.108 38.4426 2.42533 37.6946 3.06 37.06C3.69467 36.4253 4.44267 36.108 5.304 36.108H32.912C33.7733 36.108 34.5213 36.4253 35.156 37.06C35.7907 37.6946 36.108 38.4426 36.108 39.304V54.196ZM19.108 43.588C18.4733 43.588 17.884 43.7693 17.34 44.132C16.796 44.4946 16.3993 44.982 16.15 45.594C15.9007 46.206 15.844 46.8293 15.98 47.464C16.116 48.0986 16.4107 48.6426 16.864 49.096C17.3173 49.5493 17.8727 49.8326 18.53 49.946C19.1873 50.0593 19.8107 49.98 20.4 49.708C20.9893 49.436 21.454 49.028 21.794 48.484C22.134 47.94 22.304 47.3506 22.304 46.716C22.304 45.8546 21.9867 45.118 21.352 44.506C20.7173 43.894 19.9693 43.588 19.108 43.588ZM19.108 47.804C18.7907 47.804 18.53 47.702 18.326 47.498C18.122 47.294 18.02 47.0333 18.02 46.716C18.02 46.3986 18.122 46.138 18.326 45.934C18.53 45.73 18.7907 45.628 19.108 45.628C19.4253 45.628 19.686 45.73 19.89 45.934C20.094 46.138 20.196 46.3986 20.196 46.716C20.196 47.0333 20.094 47.294 19.89 47.498C19.686 47.702 19.4253 47.804 19.108 47.804ZM27.608 43.588C26.9733 43.588 26.384 43.7693 25.84 44.132C25.296 44.4946 24.8993 44.982 24.65 45.594C24.4007 46.206 24.344 46.8293 24.48 47.464C24.616 48.0986 24.9107 48.6426 25.364 49.096C25.8173 49.5493 26.3727 49.8326 27.03 49.946C27.6873 50.0593 28.3107 49.98 28.9 49.708C29.4893 49.436 29.954 49.028 30.294 48.484C30.634 47.94 30.804 47.3506 30.804 46.716C30.804 45.8546 30.4867 45.118 29.852 44.506C29.2173 43.894 28.4693 43.588 27.608 43.588ZM27.608 47.804C27.2907 47.804 27.03 47.702 26.826 47.498C26.622 47.294 26.52 47.0333 26.52 46.716C26.52 46.3986 26.622 46.138 26.826 45.934C27.03 45.73 27.2907 45.628 27.608 45.628C27.9253 45.628 28.186 45.73 28.39 45.934C28.594 46.138 28.696 46.3986 28.696 46.716C28.696 47.0333 28.594 47.294 28.39 47.498C28.186 47.702 27.9253 47.804 27.608 47.804ZM10.608 43.588C9.97333 43.588 9.384 43.7693 8.84 44.132C8.296 44.4946 7.89933 44.982 7.65 45.594C7.40067 46.206 7.344 46.8293 7.48 47.464C7.616 48.0986 7.91067 48.6426 8.364 49.096C8.81733 49.5493 9.37267 49.8326 10.03 49.946C10.6873 50.0593 11.3107 49.98 11.9 49.708C12.4893 49.436 12.954 49.028 13.294 48.484C13.634 47.94 13.804 47.3506 13.804 46.716C13.804 45.8546 13.4867 45.118 12.852 44.506C12.2173 43.894 11.4693 43.588 10.608 43.588ZM10.608 47.804C10.2907 47.804 10.03 47.702 9.826 47.498C9.622 47.294 9.52 47.0333 9.52 46.716C9.52 46.3986 9.622 46.138 9.826 45.934C10.03 45.73 10.2907 45.628 10.608 45.628C10.9253 45.628 11.186 45.73 11.39 45.934C11.594 46.138 11.696 46.3986 11.696 46.716C11.696 47.0333 11.594 47.294 11.39 47.498C11.186 47.702 10.9253 47.804 10.608 47.804ZM1.088 29.716H7.412C7.684 29.716 7.93333 29.614 8.16 29.41C8.38667 29.206 8.5 28.968 8.5 28.696C8.5 26.4293 9.15733 24.378 10.472 22.542C11.7867 20.706 13.5093 19.4026 15.64 18.632L15.98 20.332C16.0707 20.74 16.2973 21.012 16.66 21.148C17.0227 21.284 17.3627 21.2386 17.68 21.012L27.2 13.6C27.5173 13.328 27.6533 12.9993 27.608 12.614C27.5627 12.2286 27.3587 11.9453 26.996 11.764L15.3 6.45996C14.892 6.27862 14.5293 6.32396 14.212 6.59596C13.8947 6.86796 13.7587 7.20796 13.804 7.61596L14.28 10.2C11.5147 10.9253 9.05533 12.1946 6.902 14.008C4.74867 15.8213 3.06 18.0086 1.836 20.57C0.612 23.1313 0 25.84 0 28.696C0 28.968 0.113333 29.206 0.34 29.41C0.566667 29.614 0.816 29.716 1.088 29.716ZM15.708 12.036C15.98 11.9906 16.1953 11.8433 16.354 11.594C16.5127 11.3446 16.5693 11.084 16.524 10.812L16.252 9.24796L24.548 12.988L17.748 18.224L17.544 17.136C17.4987 16.8186 17.3513 16.5806 17.102 16.422C16.8527 16.2633 16.5693 16.2066 16.252 16.252C13.532 16.8413 11.2653 18.19 9.452 20.298C7.63867 22.406 6.61867 24.8426 6.392 27.608H2.176C2.35733 25.0693 3.04867 22.712 4.25 20.536C5.45133 18.36 7.04933 16.524 9.044 15.028C11.0387 13.532 13.26 12.5346 15.708 12.036ZM66.912 38.216H60.588C60.2707 38.216 60.01 38.318 59.806 38.522C59.602 38.726 59.5 38.9866 59.5 39.304C59.5 41.5706 58.8427 43.622 57.528 45.458C56.2133 47.294 54.4907 48.5973 52.36 49.368L52.02 47.6C51.9293 47.2373 51.7027 46.988 51.34 46.852C50.9773 46.716 50.6373 46.7613 50.32 46.988L40.8 54.4C40.4827 54.672 40.3467 55.0006 40.392 55.386C40.4373 55.7713 40.6413 56.0546 41.004 56.236L52.7 61.54C52.836 61.5853 52.972 61.608 53.108 61.608C53.4253 61.608 53.6973 61.4833 53.924 61.234C54.1507 60.9846 54.2413 60.7013 54.196 60.384L53.72 57.8C56.4853 57.0746 58.9447 55.8053 61.098 53.992C63.2513 52.1786 64.94 49.9913 66.164 47.43C67.388 44.8686 68 42.16 68 39.304C68 38.9866 67.898 38.726 67.694 38.522C67.49 38.318 67.2293 38.216 66.912 38.216ZM52.292 55.964C52.02 56.0093 51.8047 56.1566 51.646 56.406C51.4873 56.6553 51.4307 56.916 51.476 57.188L51.748 58.752L43.452 55.012L50.252 49.708L50.456 50.864C50.5013 51.1813 50.6487 51.4193 50.898 51.578C51.1473 51.7366 51.4307 51.7933 51.748 51.748C54.468 51.1586 56.7347 49.81 58.548 47.702C60.3613 45.594 61.3813 43.1573 61.608 40.392H65.824C65.6427 42.9306 64.9513 45.288 63.75 47.464C62.5487 49.64 60.9507 51.476 58.956 52.972C56.9613 54.468 54.74 55.4653 52.292 55.964Z" fill="#5B94FF"/>
</svg>
