<svg width="124" height="23" viewBox="0 0 124 23" fill="none" xmlns="http://www.w3.org/2000/svg">
<path d="M12 2L14.5316 8.96667L22 9.22L16.1772 13.9067L18.0759 21L12 16.82L5.79747 21L7.82278 13.9067L2 9.22L9.34177 8.96667L12 2Z" fill="#FCCA18" stroke="#FCCA18" stroke-miterlimit="10"/>
<path d="M37 2L39.5316 8.96667L47 9.22L41.1772 13.9067L43.0759 21L37 16.82L30.7975 21L32.8228 13.9067L27 9.22L34.3418 8.96667L37 2Z" fill="#FCCA18" stroke="#FCCA18" stroke-miterlimit="10"/>
<path d="M62 2L64.5316 8.96667L72 9.22L66.1772 13.9067L68.0759 21L62 16.82L55.7975 21L57.8228 13.9067L52 9.22L59.3418 8.96667L62 2Z" fill="#FCCA18" stroke="#FCCA18" stroke-miterlimit="10"/>
<path d="M112 2L114.532 8.96667L122 9.22L116.177 13.9067L118.076 21L112 16.82L105.797 21L107.823 13.9067L102 9.22L109.342 8.96667L112 2Z" fill="#FCCA18" stroke="#FCCA18" stroke-miterlimit="10"/>
<path d="M87 2L89.5316 8.96667L97 9.22L91.1772 13.9067L93.0759 21L87 16.82L80.7975 21L82.8228 13.9067L77 9.22L84.3418 8.96667L87 2Z" fill="#FCCA18" stroke="#FCCA18" stroke-miterlimit="10"/>
</svg>
