<svg width="63" height="64" viewBox="0 0 63 64" fill="none" xmlns="http://www.w3.org/2000/svg">
<path d="M48.4682 3.42078H14.3618C8.08302 3.42078 2.99304 8.51076 2.99304 14.7896V48.8959C2.99304 55.1747 8.08302 60.2647 14.3618 60.2647H48.4682C54.747 60.2647 59.837 55.1747 59.837 48.8959V14.7896C59.837 8.51076 54.747 3.42078 48.4682 3.42078Z" fill="#FB6A15" fill-opacity="0.15"/>
<path d="M48.802 30.9717L48.2284 29.532C46.5826 25.4659 44.0522 22.0462 40.9209 19.6561C37.7897 17.266 34.1812 16 30.5 16C26.8188 16 23.2103 17.266 20.0791 19.6561C16.9478 22.0462 14.4174 25.4659 12.7716 29.532L12.198 30.9717C12.0678 31.2906 12 31.6428 12 32C12 32.3572 12.0678 32.7094 12.198 33.0283L12.7716 34.468C14.4174 38.5341 16.9478 41.9538 20.0791 44.3439C23.2103 46.734 26.8188 48 30.5 48C34.1812 48 37.7897 46.734 40.9209 44.3439C44.0522 41.9538 46.5826 38.5341 48.2284 34.468L48.802 33.0283C48.9322 32.7094 49 32.3572 49 32C49 31.6428 48.9322 31.2906 48.802 30.9717ZM44.9159 32.4342C43.577 35.7397 41.5193 38.5197 38.9731 40.4626C36.427 42.4055 33.4931 43.4346 30.5 43.4346C27.5069 43.4346 24.573 42.4055 22.0269 40.4626C19.4807 38.5197 17.423 35.7397 16.0841 32.4342L15.9176 32L16.0841 31.5658C17.423 28.2603 19.4807 25.4803 22.0269 23.5374C24.573 21.5945 27.5069 20.5654 30.5 20.5654C33.4931 20.5654 36.427 21.5945 38.9731 23.5374C41.5193 25.4803 43.577 28.2603 44.9159 31.5658L45.0824 32L44.9159 32.4342Z" fill="#FB6B15"/>
<path d="M30.5004 22.8594C29.0364 22.8594 27.6052 23.3955 26.3879 24.3998C25.1706 25.4042 24.2219 26.8318 23.6616 28.502C23.1014 30.1723 22.9548 32.0101 23.2404 33.7832C23.526 35.5563 24.231 37.1851 25.2662 38.4634C26.3014 39.7417 27.6204 40.6123 29.0563 40.965C30.4922 41.3177 31.9805 41.1367 33.3331 40.4448C34.6857 39.753 35.8418 38.5814 36.6551 37.0783C37.4685 35.5751 37.9026 33.8078 37.9026 32C37.9026 29.5758 37.1228 27.2508 35.7346 25.5366C34.3464 23.8224 32.4636 22.8594 30.5004 22.8594ZM30.5004 36.5703C29.7684 36.5703 29.0528 36.3023 28.4442 35.8001C27.8355 35.2979 27.3611 34.5841 27.081 33.749C26.8009 32.9139 26.7276 31.9949 26.8704 31.1084C27.0132 30.2218 27.3657 29.4075 27.8833 28.7683C28.4009 28.1291 29.0604 27.6938 29.7783 27.5175C30.4963 27.3412 31.2405 27.4317 31.9167 27.7776C32.593 28.1235 33.1711 28.7093 33.5778 29.4609C33.9844 30.2125 34.2015 31.0961 34.2015 32C34.2015 33.2121 33.8116 34.3746 33.1175 35.2317C32.4234 36.0888 31.482 36.5703 30.5004 36.5703Z" fill="#FB6B15"/>
</svg>
