<svg width="63" height="64" viewBox="0 0 63 64" fill="none" xmlns="http://www.w3.org/2000/svg">
<path d="M48.4682 3.42078H14.3618C8.08302 3.42078 2.99304 8.51076 2.99304 14.7896V48.8959C2.99304 55.1747 8.08302 60.2647 14.3618 60.2647H48.4682C54.747 60.2647 59.837 55.1747 59.837 48.8959V14.7896C59.837 8.51076 54.747 3.42078 48.4682 3.42078Z" fill="#02D6E4" fill-opacity="0.15"/>
<path fill-rule="evenodd" clip-rule="evenodd" d="M29.879 16.2543C33.2307 16.2543 36.5055 17.255 39.2845 19.1281L39.4031 21.2834L36.0819 24.5998C33.1905 22.499 29.4332 22.0051 26.0959 23.2864C22.7587 24.5662 20.297 27.4497 19.5544 30.9455C18.8119 34.4415 19.8879 38.0753 22.4154 40.6026C24.9428 43.1299 28.5768 44.2061 32.0725 43.4636C35.5685 42.7211 38.4519 40.2595 39.7316 36.9221C41.0129 33.5848 40.519 29.8275 38.4182 26.936L41.7346 23.6148L43.8899 23.7335C46.7044 27.9321 47.4869 33.1694 46.026 38.008C44.5634 42.8446 41.0096 46.7739 36.343 48.7109C31.6763 50.6481 26.3857 50.3915 21.9276 48.0117C17.4696 45.6318 14.3117 41.379 13.3256 36.4233C12.3377 31.4664 13.6238 26.3281 16.8312 22.4218C20.037 18.5153 24.826 16.2527 29.879 16.2543ZM31.1106 33.1284L46.1081 18.1502C46.3085 17.9962 46.4336 17.7637 46.4497 17.5119C46.4673 17.2585 46.3743 17.0115 46.1947 16.832C46.0151 16.6524 45.7681 16.5593 45.5163 16.577C45.263 16.593 45.0304 16.7181 44.8765 16.9186L29.879 31.884C29.6785 32.038 29.5534 32.2705 29.5358 32.5239C29.5198 32.7757 29.6128 33.0226 29.7924 33.2022C29.9704 33.3818 30.219 33.4749 30.4707 33.4572C30.7241 33.4412 30.9566 33.3161 31.1106 33.1156V33.1284ZM42.4789 22.8759L45.4794 23.0395C45.6798 23.0507 45.8755 22.9769 46.0166 22.8342L49.9007 18.9501V18.9517C49.9921 18.8539 50.0194 18.7144 49.9745 18.5909C49.9296 18.4658 49.8189 18.376 49.6874 18.36L46.9948 18.2076C46.913 18.3937 46.7976 18.562 46.6532 18.7048L42.4789 22.8759ZM44.8186 16.0281L44.6583 13.3307C44.6503 13.1928 44.5621 13.0725 44.4322 13.0228C44.3039 12.9747 44.1579 13.0036 44.0585 13.1014L40.184 16.9839C40.0365 17.1298 39.9627 17.3335 39.9788 17.5388L40.1423 20.5392L44.3216 16.3649C44.4644 16.2205 44.6327 16.1051 44.8188 16.0233L44.8186 16.0281ZM29.8786 28.8945C28.02 28.8961 26.3794 30.1116 25.839 31.8901C25.297 33.6686 25.9785 35.5914 27.5213 36.6306C29.0624 37.6682 31.1007 37.5784 32.5455 36.4077C33.9888 35.2386 34.5003 33.2613 33.8028 31.5391L31.6683 33.6704V33.6688C31.0252 34.3135 29.9812 34.3135 29.3365 33.6688C28.6934 33.0257 28.6934 31.9817 29.3365 31.3371L31.4678 29.2026C30.9626 28.9989 30.4223 28.8945 29.8786 28.8945Z" fill="#02D6E4"/>
</svg>
