<svg width="63" height="64" viewBox="0 0 63 64" fill="none" xmlns="http://www.w3.org/2000/svg">
<path d="M48.4682 3.42078H14.3618C8.08302 3.42078 2.99304 8.51076 2.99304 14.7896V48.8959C2.99304 55.1747 8.08302 60.2647 14.3618 60.2647H48.4682C54.747 60.2647 59.837 55.1747 59.837 48.8959V14.7896C59.837 8.51076 54.747 3.42078 48.4682 3.42078Z" fill="#F800FF" fill-opacity="0.2"/>
<path fill-rule="evenodd" clip-rule="evenodd" d="M24.5456 18.8581C24.5794 18.9122 24.6019 18.9724 24.6117 19.0352C24.6216 19.098 24.6186 19.1622 24.603 19.2239C24.5874 19.2855 24.5594 19.3435 24.5208 19.3942C24.4821 19.445 24.4336 19.4876 24.378 19.5195C24.3225 19.5513 24.261 19.5718 24.1973 19.5797C24.1336 19.5877 24.0689 19.5828 24.0071 19.5656C23.9453 19.5483 23.8877 19.5189 23.8375 19.4792C23.7874 19.4394 23.7459 19.3902 23.7153 19.3342L21.7554 15.9713C21.6942 15.8625 21.6786 15.7342 21.712 15.6141C21.7454 15.494 21.8252 15.3917 21.934 15.3293C22.0429 15.2669 22.1722 15.2494 22.294 15.2805C22.4158 15.3116 22.5204 15.3889 22.5852 15.4956L24.5456 18.8581ZM30.7985 17.3581C30.7985 17.4843 30.7478 17.6054 30.6577 17.6947C30.5675 17.784 30.4452 17.8342 30.3177 17.8342C30.1902 17.8342 30.0679 17.784 29.9777 17.6947C29.8875 17.6054 29.8369 17.4843 29.8369 17.3581V13.4761C29.8369 13.3498 29.8875 13.2287 29.9777 13.1395C30.0679 13.0502 30.1902 13 30.3177 13C30.4452 13 30.5675 13.0502 30.6577 13.1395C30.7478 13.2287 30.7985 13.3498 30.7985 13.4761V17.3581ZM48.7967 30.1358H40.4815L32.1663 49.6553L48.7967 30.1358ZM44.9984 22.3193L42.9969 25.7516L40.9967 29.1818H49L46.999 25.7499L44.9979 22.3175L44.9984 22.3193ZM37.3334 25.7516L35.3328 22.3201L33.3309 25.7534L31.3307 29.184H39.3335L37.3334 25.7538V25.7516ZM39.4421 30.1358L30.9804 50V30.1358H39.4421ZM36.1622 21.8471H44.1672L42.1671 25.2777L40.1647 28.7123L38.1632 25.2795L36.1626 21.8489L36.1622 21.8471ZM30.0187 30.1358H21.5565L30.0187 50V30.1358ZM26.4979 21.8471H34.5007L32.5006 25.2773L30.5 28.7123L28.4981 25.2786L26.4979 21.8484V21.8471ZM25.6663 22.3201L23.6657 25.7516L21.6642 29.1836H29.6684L27.6682 25.7534L25.6663 22.3201ZM18.0031 25.7516L16.0016 22.3193L14.0144 25.7264C14.01 25.7353 14.0055 25.7437 14.0001 25.7525L12 29.1836H20.0028L18.0031 25.7534V25.7516ZM20.5171 30.1358L28.8328 49.6553L12.202 30.1358H20.5171ZM16.8319 21.8471H24.8365L22.8355 25.2795L20.8349 28.7123L18.8329 25.2786L16.8328 21.848L16.8319 21.8471ZM36.9687 19.1546C36.9055 19.2636 36.8011 19.3433 36.6786 19.3761C36.556 19.4089 36.4253 19.3922 36.3152 19.3296C36.2051 19.267 36.1246 19.1636 36.0915 19.0423C36.0583 18.9209 36.0752 18.7915 36.1385 18.6824L38.0989 15.3195C38.1296 15.2645 38.1711 15.2161 38.2209 15.1771C38.2707 15.1381 38.3279 15.1093 38.3891 15.0924C38.4502 15.0755 38.5142 15.0708 38.5772 15.0787C38.6402 15.0865 38.701 15.1066 38.7561 15.138C38.8112 15.1693 38.8594 15.2112 38.8979 15.2611C38.9365 15.3111 38.9646 15.3682 38.9807 15.429C38.9967 15.4899 39.0004 15.5533 38.9915 15.6155C38.9826 15.6778 38.9612 15.7377 38.9287 15.7917L36.9687 19.1546Z" fill="#F800FF"/>
</svg>
